<?xml version="1.0" encoding="UTF-8"?>
<svg version="1.1" xmlns="http://www.w3.org/2000/svg" width="500" height="500">
<path d="M0 0 C1.6434369 -0.00373899 3.28687203 -0.0083415 4.93030435 -0.01373065 C9.43638 -0.02594545 13.94238133 -0.02570197 18.44846976 -0.02334189 C23.31230218 -0.02293334 28.1761109 -0.03397658 33.03993225 -0.04345703 C42.56565096 -0.06005991 52.09134492 -0.06556627 61.6170769 -0.06668179 C69.36182064 -0.06763264 77.10655622 -0.07174482 84.85129738 -0.07808304 C106.81785655 -0.09569387 128.78439618 -0.10492221 150.75096246 -0.10342209 C152.52677137 -0.10330222 152.52677137 -0.10330222 154.3384552 -0.10317993 C155.52377645 -0.10309817 156.70909769 -0.10301641 157.93033776 -0.10293217 C177.13636389 -0.10211942 196.34231157 -0.12125474 215.54831501 -0.14945666 C235.27752315 -0.17819782 255.00669304 -0.19199626 274.73592263 -0.19026911 C285.80888801 -0.18960562 296.88177114 -0.19508026 307.95471764 -0.21662521 C317.38324621 -0.23485323 326.81165528 -0.23917103 336.24019387 -0.22560637 C341.04790126 -0.21908481 345.85537948 -0.21893017 350.66306496 -0.23631287 C355.07065655 -0.25208462 359.47783804 -0.24913826 363.88541988 -0.2317446 C365.47355952 -0.22868371 367.06173008 -0.23227252 368.64983322 -0.24346475 C385.56309143 -0.35469631 399.01893677 3.78026265 411.7278595 15.32992554 C424.46005055 28.6564379 426.1330309 45.97863778 426.11157227 63.51199341 C426.11344228 64.96227587 426.11574374 66.41255782 426.11843759 67.86283898 C426.12453848 71.83495659 426.12442401 75.8070531 426.12324321 79.77917433 C426.12303877 84.06833182 426.1285621 88.35748261 426.13330078 92.64663696 C426.14159852 101.04504494 426.14435523 109.4434459 426.14491316 117.84185764 C426.14538874 124.67032198 426.14744558 131.49878401 426.15061378 138.32724762 C426.15941799 157.69800565 426.16403353 177.06875814 426.16328331 196.43951818 C426.16322338 198.00513799 426.16322338 198.00513799 426.16316223 199.60238647 C426.16312135 200.64741114 426.16308047 201.6924358 426.16303835 202.76912788 C426.16263195 219.70282137 426.17220051 236.63649261 426.1863006 253.57017967 C426.20067269 270.96816339 426.20757032 288.36613626 426.20670682 305.76412606 C426.20637514 315.52750097 426.20910966 325.29085256 426.21988487 335.05422211 C426.22900082 343.36725212 426.23115613 351.68024824 426.22437545 359.9932811 C426.22111577 364.23170475 426.22103357 368.47006341 426.2297287 372.70848083 C426.23761908 376.59471736 426.2361365 380.48083764 426.22744457 384.36707142 C426.22591515 385.76676788 426.2277045 387.16647313 426.23330464 388.56615922 C426.3032183 407.29284872 423.17557116 422.55190061 409.95051575 436.38851929 C395.78627145 449.9380405 379.13729313 451.42005749 360.54536438 451.40786743 C358.96593895 451.41045372 357.38651417 451.41346761 355.80709028 451.41687083 C351.47784726 451.4249132 347.14862084 451.42672886 342.81937122 451.4274683 C338.14567435 451.4293237 333.47198599 451.4368735 328.79829407 451.44360352 C318.58314442 451.45716801 308.36799872 451.4632087 298.15284157 451.46761417 C291.76988263 451.47037995 285.3869252 451.47461793 279.00396729 451.47911835 C261.31853073 451.49130886 243.63309539 451.50160841 225.94765472 451.50499344 C224.81639796 451.505213 223.68514121 451.50543257 222.51960394 451.50565879 C221.38569606 451.50587707 220.25178818 451.50609535 219.08351946 451.50632024 C216.78592968 451.5067637 214.4883399 451.50721026 212.19075012 451.50765991 C211.05107503 451.50788134 209.91139994 451.50810277 208.73718923 451.50833091 C190.28008906 451.51227696 171.82302841 451.52972605 153.36594349 451.55301943 C134.39948326 451.5767617 115.43304284 451.58919661 96.46656752 451.59036136 C85.82444066 451.59127653 75.18236531 451.59698909 64.54025269 451.61518097 C55.47634158 451.63062083 46.41249789 451.63567957 37.34857613 451.62744287 C32.72887968 451.62355002 28.10931884 451.62439883 23.48963928 451.63850021 C19.25034035 451.65132147 15.01127779 451.64997027 10.7719788 451.6379095 C9.24838788 451.63596663 7.72477974 451.63896471 6.20121294 451.64775386 C-12.73123956 451.74994833 -29.66387948 449.11799738 -43.8346405 435.56039429 C-57.69464632 421.03213819 -59.17863455 405.46102725 -59.15585327 386.06791687 C-59.1577239 384.63469594 -59.16002561 383.20147551 -59.16271859 381.76825589 C-59.16881189 377.84786507 -59.16870592 373.92749565 -59.16752422 370.00710118 C-59.16731958 365.77177487 -59.17284497 361.53645533 -59.17758179 357.3011322 C-59.18587547 349.00980731 -59.18863605 340.71848953 -59.18919417 332.42716084 C-59.18966996 325.68454996 -59.19172787 318.94194142 -59.19489479 312.19933128 C-59.20369806 293.06596283 -59.20831471 273.93259997 -59.20756432 254.79922948 C-59.20752436 253.76852178 -59.2074844 252.73781407 -59.20744324 251.6758728 C-59.20740236 250.64390072 -59.20736148 249.61192864 -59.20731936 248.54868468 C-59.20691304 231.82980114 -59.21647992 215.11094014 -59.2305816 198.39206312 C-59.24496019 181.20874042 -59.25185096 164.02542871 -59.25098783 146.84209985 C-59.25065636 137.20163692 -59.25338145 127.56119762 -59.26416588 117.92074013 C-59.27329042 109.71172917 -59.27543013 101.50275255 -59.26865645 93.2937387 C-59.26540103 89.10974218 -59.26529904 84.92581147 -59.2740097 80.74182129 C-59.28191915 76.90301378 -59.28039837 73.06432376 -59.27172557 69.22551896 C-59.26948413 67.19729206 -59.2769842 65.16906138 -59.28496522 63.14084893 C-59.21174107 43.48383636 -55.96390408 27.78259321 -42.15104675 13.30648804 C-29.96287749 1.70112105 -16.01346431 -0.03449761 0 0 Z " fill="#000000" transform="translate(67.02214050292969,22.732574462890625)"/>
<path d="M0 0 C7.2536233 5.46490833 13.15698366 12.57417246 14.58203125 21.7578125 C14.56650817 26.98909169 14.21695899 31.8630111 11.95703125 36.6328125 C10.37260272 40.23378643 10.63735889 41.06500237 11.58203125 44.7578125 C12.40785945 53.61350217 10.3777151 62.14280547 8.58203125 70.7578125 C9.2776416 70.54576172 9.97325195 70.33371094 10.68994141 70.11523438 C13.8597809 69.15419691 17.03329739 68.20590601 20.20703125 67.2578125 C21.30144531 66.92394531 22.39585937 66.59007812 23.5234375 66.24609375 C24.58691406 65.93027344 25.65039062 65.61445313 26.74609375 65.2890625 C27.7201416 64.99580078 28.69418945 64.70253906 29.69775391 64.40039062 C32.85901779 63.69610363 35.35813783 63.37153453 38.58203125 63.7578125 C43.06274256 66.75986919 43.99075547 71.23428585 45.37890625 76.171875 C45.61740295 76.98272552 45.85589966 77.79357605 46.10162354 78.6289978 C46.85726725 81.21023672 47.59448575 83.79635158 48.33203125 86.3828125 C48.84262109 88.13053853 49.3543278 89.87793869 49.8671875 91.625 C53.58203125 104.3738289 53.58203125 104.3738289 53.58203125 106.7578125 C54.42636719 106.85320312 55.27070313 106.94859375 56.140625 107.046875 C60.00872624 107.84596061 63.19771331 109.27718133 66.64453125 111.1328125 C67.29429932 111.482229 67.94406738 111.83164551 68.61352539 112.19165039 C89.69530482 124.00288204 104.97772675 144.67953166 111.58203125 167.7578125 C118.36992854 192.73975414 114.75511161 218.58117304 102.20703125 241.0703125 C90.499935 260.2227112 72.80573588 276.29426516 50.58203125 281.7578125 C47.14453125 281.8828125 47.14453125 281.8828125 44.58203125 281.7578125 C39.20980114 272.68059611 37.31205482 262.24639699 37.58203125 251.7578125 C38.69320313 251.2009375 39.804375 250.6440625 40.94921875 250.0703125 C57.92716676 241.42661147 70.43535863 231.87754974 77.70703125 213.546875 C82.25208542 199.05951482 80.83555946 181.61616868 74.296875 168.1015625 C68.84550634 158.26176615 61.33941444 150.33094848 51.58203125 144.7578125 C50.95941406 144.38011719 50.33679688 144.00242188 49.6953125 143.61328125 C37.46179503 136.76558908 23.21842218 136.24933992 9.90625 139.66796875 C-5.50472074 144.72044917 -17.9710462 155.38546058 -25.41796875 169.7578125 C-32.85467324 185.35847019 -32.34927866 199.14066659 -27.609375 215.55859375 C-22.57460497 229.58881957 -11.98698739 240.01407741 1.2019043 246.45263672 C8.97043555 250.02618206 17.12315968 251.79657709 25.58203125 252.7578125 C27.66801354 258.02766249 29.50898007 263.37186239 31.26953125 268.7578125 C31.49600342 269.42167969 31.72247559 270.08554687 31.95581055 270.76953125 C33.50263211 275.59054725 33.79102187 279.69685048 33.58203125 284.7578125 C13.61247222 288.43173731 -7.09520096 283.20278403 -24.0859375 272.3828125 C-45.44098097 257.5022462 -60.09902581 236.78753723 -64.94848633 210.92895508 C-68.63629077 186.01949488 -64.08132905 161.34831652 -49.41796875 140.7578125 C-48.78866455 140.15493408 -48.15936035 139.55205566 -47.51098633 138.9309082 C-45.25724181 136.60143484 -43.74967664 134.72405866 -42.41796875 131.7578125 C-42.65685374 126.68037248 -44.21879952 122.09418431 -45.85546875 117.3203125 C-46.64859609 114.80164958 -47.43901549 112.28213213 -48.2265625 109.76171875 C-48.79286377 107.96565186 -48.79286377 107.96565186 -49.37060547 106.13330078 C-49.71623535 105.01938965 -50.06186523 103.90547852 -50.41796875 102.7578125 C-50.71848145 101.79214355 -51.01899414 100.82647461 -51.32861328 99.83154297 C-52.47546224 95.4764513 -52.79815201 93.56114814 -50.828125 89.3984375 C-46.55177454 85.27714278 -40.41082885 84.08873455 -34.85546875 82.5078125 C-32.60341656 81.83845609 -30.35208193 81.16667946 -28.1015625 80.4921875 C-27.10697021 80.20569336 -26.11237793 79.91919922 -25.08764648 79.62402344 C-21.59428262 78.51477268 -21.59428262 78.51477268 -18.41796875 76.7578125 C-17.23306177 74.5775374 -17.23306177 74.5775374 -16.49609375 71.96875 C-16.19316406 71.02773437 -15.89023437 70.08671875 -15.578125 69.1171875 C-15.12759766 67.63992187 -15.12759766 67.63992187 -14.66796875 66.1328125 C-14.19423828 64.64394531 -14.19423828 64.64394531 -13.7109375 63.125 C-12.93296595 60.67321087 -12.16934936 58.21785542 -11.41796875 55.7578125 C-12.2171875 55.81582031 -13.01640625 55.87382812 -13.83984375 55.93359375 C-22.65864363 56.29586839 -28.61242123 54.72718649 -36.41796875 50.7578125 C-37.1435498 50.3983252 -37.86913086 50.03883789 -38.61669922 49.66845703 C-46.69870183 45.6530369 -54.51957234 41.69560631 -61.60546875 36.0703125 C-64.83669661 33.57664752 -66.72029855 32.21778629 -70.85546875 32.6328125 C-74.84368234 33.81043324 -74.84368234 33.81043324 -78.41796875 35.7578125 C-79.34145866 38.31941954 -79.34145866 38.31941954 -79.79296875 41.3203125 C-82.98016273 55.24768617 -93.03515375 62.12302879 -104.52734375 69.390625 C-114.85320763 75.7578125 -114.85320763 75.7578125 -117.41796875 75.7578125 C-117.08796875 77.4078125 -116.75796875 79.0578125 -116.41796875 80.7578125 C-115.18046875 81.1703125 -113.94296875 81.5828125 -112.66796875 82.0078125 C-111.85328125 82.28367187 -111.03859375 82.55953125 -110.19921875 82.84375 C-108.25079487 83.48410279 -106.29111879 84.09074544 -104.32421875 84.671875 C-93.32483489 88.02069731 -93.32483489 88.02069731 -90.41796875 92.7578125 C-90.66369758 100.10425726 -93.32560524 106.5103421 -95.91796875 113.3203125 C-99.83077935 122.77771039 -99.83077935 122.77771039 -101.41796875 132.7578125 C-100.26933994 135.28663667 -100.26933994 135.28663667 -98.35546875 137.4453125 C-83.79180518 156.78632097 -80.78060562 180.15215473 -83.80175781 203.75634766 C-87.7528622 227.68981189 -100.94630987 249.47827685 -120.32275391 264.20556641 C-136.35897185 275.540066 -154.13879991 281.90603931 -173.85546875 282.1328125 C-174.6961792 282.14683105 -175.53688965 282.16084961 -176.40307617 282.17529297 C-181.8132724 282.13321546 -185.59043261 281.21381339 -190.41796875 278.7578125 C-190.41796875 274.68870554 -189.76841207 272.64903744 -188.265625 268.93359375 C-187.81896484 267.82306641 -187.37230469 266.71253906 -186.91210938 265.56835938 C-186.43966797 264.41400391 -185.96722656 263.25964844 -185.48046875 262.0703125 C-185.01189453 260.90435547 -184.54332031 259.73839844 -184.06054688 258.53710938 C-180.56737708 249.90722083 -180.56737708 249.90722083 -179.41796875 248.7578125 C-177.34182348 248.44459181 -175.26470409 248.1367258 -173.18359375 247.85839844 C-156.51215774 245.59133574 -141.64161401 239.77713791 -130.48828125 226.625 C-120.77858156 213.17798194 -116.79521622 198.23028154 -118.41796875 181.7578125 C-121.15450933 165.9901263 -129.27559238 153.08676963 -142.234375 143.72265625 C-155.7890408 135.22166079 -170.56667691 132.68230129 -186.1875 135.41796875 C-201.60989061 139.34583229 -213.8725292 148.01894693 -222.29296875 161.5703125 C-230.08146606 176.11620582 -232.32095346 192.75616621 -227.85546875 208.8203125 C-222.05537593 224.65744537 -212.01717831 235.81373358 -197.125 243.4453125 C-194.57465327 244.60666056 -192.0206681 245.71986226 -189.41796875 246.7578125 C-189.6297385 252.79325029 -190.99714856 257.8509901 -193.23046875 263.4453125 C-193.60292725 264.3890271 -193.60292725 264.3890271 -193.98291016 265.35180664 C-195.71667848 269.54496561 -197.81206257 273.07788859 -200.41796875 276.7578125 C-215.48315625 276.49806789 -228.96626202 265.97011 -239.54296875 256.0703125 C-254.85943323 239.95777398 -264.48302341 219.11520113 -265.41796875 196.7578125 C-265.45792969 195.86320313 -265.49789062 194.96859375 -265.5390625 194.046875 C-266.1454668 166.86569413 -255.66604777 142.66864901 -237.16796875 123.0703125 C-226.5592044 112.92684483 -212.28720764 102.59380084 -197.41796875 100.7578125 C-197.2478125 100.09571777 -197.07765625 99.43362305 -196.90234375 98.75146484 C-195.07407258 91.82372722 -192.88514357 85.10725516 -190.41796875 78.3828125 C-190.07507813 77.42503906 -189.7321875 76.46726562 -189.37890625 75.48046875 C-185.03799957 63.56782791 -185.03799957 63.56782791 -181.41796875 61.7578125 C-175.26407376 61.43105701 -169.88538164 62.3194133 -163.91796875 63.7578125 C-163.09554687 63.94859375 -162.273125 64.139375 -161.42578125 64.3359375 C-159.42134468 64.80208554 -157.41938012 65.27884226 -155.41796875 65.7578125 C-153.28865026 61.9414186 -153.38864401 60.0466656 -154.41796875 55.7578125 C-154.76859375 54.8709375 -155.11921875 53.9840625 -155.48046875 53.0703125 C-157.37657758 46.37072795 -157.3722664 40.03465419 -154.48046875 33.6328125 C-146.43700307 19.45032287 -128.64578943 8.13475955 -113.73046875 2.3203125 C-106.52852776 1.09734139 -99.91984915 1.05591372 -93.41796875 4.7578125 C-92.29292519 5.84069986 -91.18885654 6.94575083 -90.10546875 8.0703125 C-87.72261721 10.32570919 -86.87902115 10.76718348 -83.53515625 10.69921875 C-80.77072989 10.1866333 -78.1098184 9.56585417 -75.41796875 8.7578125 C-75.464375 8.12875 -75.51078125 7.4996875 -75.55859375 6.8515625 C-75.8731096 -0.60695626 -74.72596572 -5.59753597 -69.65234375 -11.1875 C-49.1652481 -30.4647278 -19.24917726 -13.05008505 0 0 Z " fill="#FEFEFE" transform="translate(326.41796875,110.2421875)"/>
<path d="M0 0 C3.38704645 1.00534486 6.50479514 2.41312893 9.6875 3.9375 C10.55310547 4.34137939 11.41871094 4.74525879 12.31054688 5.16137695 C33.06465448 15.07564949 33.06465448 15.07564949 38 24 C37.75 26.875 37.75 26.875 37 29 C36.43152344 28.7834375 35.86304688 28.566875 35.27734375 28.34375 C30.2757781 26.54018042 26.31037964 25.6610396 21 26 C20.01 28.97 19.02 31.94 18 35 C10.04199322 32.707015 3.18082279 29.05100513 -4 25 C-4 24.01 -4 23.02 -4 22 C-3.34 22 -2.68 22 -2 22 C-1.91885894 20.22992286 -1.86074495 18.45877902 -1.8125 16.6875 C-1.77769531 15.70136719 -1.74289062 14.71523437 -1.70703125 13.69921875 C-1.77920048 11.00984319 -1.77920048 11.00984319 -3.25 9.21875 C-5.23720594 7.834803 -6.825429 7.31589218 -9.1875 6.8125 C-11.0746875 6.4103125 -11.0746875 6.4103125 -13 6 C-12.6875 4.125 -12.6875 4.125 -12 2 C-7.90146994 -0.73235338 -4.81324964 -0.60036434 0 0 Z " fill="#040404" transform="translate(284,109)"/>
<path d="M0 0 C-0.46203112 3.00320225 -1.24102842 4.31900821 -3.125 6.8125 C-5.30632466 9.90440558 -5.30632466 9.90440558 -5 13.625 C-3.93539185 17.2180525 -2.88046538 18.67704405 0 21 C-1.72851153 26.18553459 -6.84488297 28.81468563 -11.5 31.375 C-16.07929235 32.51982309 -19.92270262 32.9820615 -24.22265625 30.94921875 C-27.11129069 29.17200083 -29.59846757 27.40153243 -32 25 C-32.4375 22.75 -32.4375 22.75 -32 20 C-28.36210203 14.95591455 -24.21170396 11.73095945 -19.0625 8.3125 C-18.37220703 7.84005859 -17.68191406 7.36761719 -16.97070312 6.88085938 C-6.00530373 -0.52987974 -6.00530373 -0.52987974 0 0 Z " fill="#030303" transform="translate(221,132)"/>
</svg>
